<mxfile host="app.diagrams.net" modified="2024-01-22T15:53:24.125Z" agent="Mozilla/5.0 (Windows NT 10.0; Win64; x64) AppleWebKit/537.36 (KHTML, like Gecko) Chrome/120.0.0.0 Safari/537.36" version="22.1.15" etag="PV0ev9VtDgHmZ0gTF0o_" type="github">
  <diagram name="Page-1" id="DRUsv5OeMX0kn5rDoSn2">
    <mxGraphModel>
      <root>
        <mxCell id="0" />
        <mxCell id="1" parent="0" />
      </root>
    </mxGraphModel>
  </diagram>
</mxfile>
